<svg id="BiglyBT" width="15.16" height="15.98" data-name="Layer 1" version="1.1" viewBox="0 0 251.63344 265.19525" xmlns="http://www.w3.org/2000/svg">
   <defs>
      <style>.cls-1{fill:none;}.cls-2{fill:#5586c5;}.cls-3{fill:#fff;}.cls-4{clip-path:url(#clip-path);}</style>
   </defs>
   <title>BiglyBT</title>
   <g transform="translate(-26.96 -52.54)" display="none" opacity=".192">
      <path d="m86.1 53.07c-19.28 12.8-32.58 32.09-37.23 54.83 16.76 0.0233 33.52 0.0441 50.28 0.0664-4.849 12.84-0.2894 41.56-0.2894 41.56 2.33 1.345-11.06 0.6739-15.36 0.6739h-34.4c3.201 13.53 8.94 26.5 17.18 37.73-12.44-0.0494-28.06-2.215-37.19 8.33-5.526 8.115 0.6487 18.26 7.581 23.22 33.38 30.72 65.94 62.39 99.91 92.42 15.75 10.59 38.88 6.199 50.2-8.883 29.62-30.36 60.18-59.85 89.19-90.78 4.923-6.683 2.779-17.58-5.391-20.58-8.072-4.173-17.52-3.687-26.26-3.674 8.23-11.21 13.98-24.15 17.18-37.66-17.49-0.5299-35.29-0.6797-52.57-0.6797 0-5.103-0.4033-10.18-0.4033-15.45 0-8.656 0.2587-18.05 0.2587-26.52 6.514 0 12.97 0.0242 19.12 0.0242 11.16-0.051 22.32-0.086 33.48-0.12-5.313-21.55-18.44-40.93-36.16-54.24-45.33-0.1604-91.18 0.3207-136.2-0.2402-0.1954-1.148-1.78-0.2674-2.949-0.0447zm83.46 48.96c6.725 0 14.07 0.105 20.62 0.105 0 4.699-0.0581 10.42-0.0581 15.14 0 12.68-0.0266 25.31-0.0266 38.26-6.158 0-13.33 0.0494-19.76 0.0494-12.96 0-25.92-0.4634-39.01-0.4634-9.982-4.593-10.52-17.4-10.52-27.13 0-17.01 3.366-25.8 16.16-25.9 10.87 0.1645 21.73-0.0741 32.6-0.0623zm-26.86 7.852c-7.627 0.0275-8.08 1.367-8.155 5.418 0 7.217-0.5096 20.85-0.2892 28.5 0.1053 3.661 4.019 3.486 4.019 3.486-1.97 0 38.62 0.2581 40.62 0.2581 2.592 0 3.848-1.537 3.901-4.132 0.1099-5.414 0.3472-7.654 0.3472-12.66-7.241 0-16.52 0.1774-20.84 0.1774-4.318 0-4.143-0.4461-4.143-2.394 0-1.807-0.0259-2.788 4.166-2.721l20.74 0.3287c0-5.707 2.051-15.96-5.748-15.96-11.81-0.6089-22.79-0.1308-34.62-0.3066z" display="inline" stroke-width="1.207"/>
      <path d="m223.1 117.5c-9.111-0.2002-14 13.23-6.207 18.42 7.222 6.563 21.22-1.444 17.61-11.07-1.49-4.766-6.544-7.641-11.4-7.348z" display="inline" stroke-width="1.222"/>
      <path d="m247.3 117.5c-9.114-0.1992-14 13.23-6.205 18.42 7.225 6.556 21.22-1.449 17.61-11.07-1.493-4.763-6.544-7.643-11.4-7.348z" display="inline" stroke-width="1.222"/>
   </g>
   <g transform="translate(-26.96 -52.54)" fill="#c7c7c7">
      <path id="download" d="m84.95 56.26c-15.44 12.02-26.04 27.77-30.93 46.61l51.64 0.0664s-3.708 5.529-4.932 12.39c-1.224 6.861-1.258 21.7 0.127 28.08 1.384 6.38 4.805 9.764 4.805 9.764h-51.32c3.845 13.97 10.79 26.74 20.12 37.6l-21.3-0.0254c-21.38-0.0198-28.66 10.81-16.14 22.58l97.34 90.71c12.64 11.9 33.32 11.46 45.3-0.5195l89.3-90.19c12.16-12.28 4.413-22.37-17.22-22.37l-15.69-0.0156c3.676-4.262 6.985-8.822 9.883-13.63 4.493-7.461 7.999-15.53 10.35-24.04-15.58-2e-3 -29.8-0.0449-46.92-0.0449-1.896-0.3357-4.568-1.375-4.902-5.107 0-11.43-0.0412-27.88 0.0293-40.5 0.7007-3.489 3.23-4.61 5.16-4.873 5.031 0.0141 37.21-0.1542 46.38-0.1641-5.537-18.51-16.99-34.41-32.19-46.25h-138.9v-0.05078zm50.97 40.77c16.92 0.01042 33.76 0.03125 52 0.03125 2.375 0 6.281 1.974 6.281 5.58l-0.125 50.71c0.01 4.021-3.575 5.775-6.156 5.775-16.93 1e-5 -34.98-3e-5 -52 0-10.56-2e-5 -19.02-11.37-19.02-23.02v-17.22c0-10.96 9.38-21.84 19.02-21.86zm7 15.79s-5.002 0.16-5 5.248c3e-3 7.177 0 16.99 0 20.64 0 5.026 5 5.113 5 5.113h33s4-0.0363 4-3.809v-6.422h-21.43c-2.935 0-4.789-2.634-4.789-5.504s2.514-5.506 4.789-5.506h21.43v-5.76c0-4.032-2.871-3.933-5-3.937-10.6-0.024-25.62-0.0644-32-0.0644z" stroke-width="1.207"/>
      <ellipse class="cls-2" cx="224" cy="127.9" rx="7.048" ry="6.359" stroke-width="1.222"/>
      <ellipse class="cls-2" cx="248.1" cy="127.9" rx="7.048" ry="6.359" stroke-width="1.222"/>
   </g>
</svg>
