<?xml version="1.0" encoding="UTF-8" standalone="no"?>
<svg id="BiglyBT" xmlns:rdf="http://www.w3.org/1999/02/22-rdf-syntax-ns#" xmlns="http://www.w3.org/2000/svg" data-name="Layer 1" viewBox="0 0 255.78316 268.55713" height="100%" width="100%" version="1.1" xmlns:cc="http://creativecommons.org/ns#" xmlns:dc="http://purl.org/dc/elements/1.1/">
 <metadata id="metadata3728">
  <rdf:RDF>
   <cc:Work rdf:about="">
    <dc:format>image/svg+xml</dc:format>
    <dc:type rdf:resource="http://purl.org/dc/dcmitype/StillImage"/>
    <dc:title>BiglyBT</dc:title>
   </cc:Work>
  </rdf:RDF>
 </metadata>
 <defs id="defs3685">
  <style id="style3680">.cls-1{fill:none;}.cls-2{fill:#5586c5;}.cls-3{fill:#fff;}.cls-4{clip-path:url(#clip-path);}</style>
 </defs>
 <title id="title3687">BiglyBT</title>
 <g id="layer1" opacity=".144" transform="translate(-2.1586 -.4375)">
  <path id="border" d="m60.378 0.76367c-20.39 13.294-31.791 36.426-38.539 59.093-3.794 15.098-2.568 31.148 3.183 45.603 3.9381 10.26 8.6109 20.32 14.588 29.561-12.198-0.57371-27.555-1.0009-35.705 9.8203-5.2931 9.6696 2.3981 20.563 10.355 25.999 34.017 31.103 66.138 64.42 101.65 93.827 17.446 9.5383 40.72 2.5168 51.823-13.468 29.41-30.647 61.008-59.33 88.772-91.472 4.9716-10.041-3.6986-22.328-14.365-23.191-5.1992-1.651-12.192-1.0045-16.471-1.8086 10.274-16.493 18.583-35.135 18.495-54.9 0.9681-32.447-17.477-61.308-41.001-79.36-47.43-0.01676-94.85-0.02927-142.28-0.0325z" stroke-width="1.2069" fill="#fff"/>
 </g>
 <g id="layer2" transform="translate(-2.1586 -.4375)">
  <path id="download" d="m60.027 5.9863c-21.863 17.01-34.023 41.5-34.023 71.66 0 23.843 8.8243 45.721 23.529 62.846l-21.301-0.0254c-21.38-0.01-28.656 10.81-16.138 22.59l97.342 90.709c12.636 11.897 33.32 11.46 45.299-0.51973l89.301-90.189c12.162-12.28 4.4131-22.371-17.217-22.371l-15.689-0.0156c14.79-17.15 23.672-39.095 23.672-63.014 0-29.37-14.114-54.639-35.875-71.609h-138.9z" transform="translate(2.1586 .4375)" stroke-width="1.2069" fill="#5586c5"/>
  <path id="belt-right" d="m186.89 52.892c-1.9304 0.26288-4.4592 1.3851-5.1599 4.8739-0.0705 12.626-0.03 29.069-0.03 40.502 0.33416 3.732 3.0053 4.7712 4.9014 5.1069 17.537 0 32.027 0.0482 48.048 0.0482 2.817-9.7183 3.5968-15.887 3.5968-24.774 0-6.6035-0.16969-14.66-3.5938-25.924-7.9597 0-42.582 0.18147-47.762 0.16694z" stroke-width="5.7444" fill="#fff"/>
  <ellipse id="belthole01" rx="7.0479" ry="6.3587" cy="78.113" cx="201.33" stroke-width="1.2222" class="cls-2" fill="#5586c5"/>
  <ellipse id="belthole02" rx="7.0479" ry="6.3587" cy="78.113" cx="225.49" stroke-width="1.2222" class="cls-2" fill="#5586c5"/>
  <path id="belt-left" d="m28.859 53.028c-3.0945 10.471-4.281 17.856-4.3176 24.432-0.0147 7.2142 1.5689 18.049 4.779 25.869h53.577s-3.4202-3.3839-4.8047-9.7637-1.3512-21.215-0.12729-28.076c1.2239-6.8614 4.932-12.39 4.932-12.39z" stroke-width="1.7143" fill="#fff"/>
  <path id="buckle-latch" d="m135.73 83.765c-2.9346 0-4.7907-2.6347-4.7907-5.505s2.5158-5.505 4.7907-5.505h21.427v11.01zm-20.57-15.524c-0.002-5.0881 5-5.2487 5-5.2487 6.3837 0 21.4 0.0402 32 0.06421 2.129 0.0048 5-0.09419 5 3.938v23.191c0 3.7723-4 3.8091-4 3.8091h-33s-5-0.08786-5-5.1143c0-3.647 0.003-13.462 0-20.639zm-21.016 0.81559v17.225c0 11.644 8.4542 23.016 19.016 23.016 17.023-0.00003 35.065 0.00001 52 0 2.5812 0 6.1658-1.7542 6.1562-5.7754l0.125-50.713c0-3.6058-3.9066-5.5801-6.2812-5.5801-18.244 0-35.084-0.02078-52-0.0312-9.6359 0.01457-19.016 10.902-19.016 21.859z" stroke-width="1.4297" fill="#fff"/>
 </g>
</svg>
